<svg width="18" height="21" viewBox="0 0 18 21" fill="none" xmlns="http://www.w3.org/2000/svg">
<path d="M14.5714 0L2.57143 0C1.88944 0 1.23539 0.270918 0.753154 0.753154C0.270918 1.23539 5.69857e-08 1.88944 5.69857e-08 2.57143L5.69857e-08 20.1429C-3.94863e-05 20.2195 0.0205014 20.2948 0.0594799 20.3609C0.0984584 20.4269 0.154446 20.4813 0.221603 20.5184C0.28876 20.5554 0.364625 20.5737 0.441283 20.5715C0.517942 20.5692 0.592586 20.5464 0.657429 20.5054L8.57143 15.5074L16.4854 20.5054C16.5538 20.5489 16.6332 20.5718 16.7143 20.5714C16.8279 20.5714 16.937 20.5263 17.0173 20.4459C17.0977 20.3655 17.1429 20.2565 17.1429 20.1429L17.1429 2.57143C17.1429 1.88944 16.8719 1.23539 16.3897 0.753154C15.9075 0.270918 15.2534 0 14.5714 0Z" fill="#171A1F"/>
</svg>
